{
    "asset" : {
        "generator" : "Khronos glTF Blender I/O v1.6.16",
        "version" : "2.0"
    },
    "extensionsUsed" : [
        "KHR_materials_transmission"
    ],
    "scene" : 0,
    "scenes" : [
        {
            "name" : "Scene",
            "nodes" : [
                0,
                1,
                2,
                3,
                4,
                5
            ]
        }
    ],
    "nodes" : [
        {
            "mesh" : 0,
            "name" : "Cube",
            "scale" : [
                0.8330847024917603,
                1,
                1
            ]
        },
        {
            "mesh" : 1,
            "name" : "buttons",
            "scale" : [
                1,
                1.199687123298645,
                1
            ],
            "translation" : [
                -1.0027036666870117,
                0.8918033838272095,
                0
            ]
        },
        {
            "mesh" : 2,
            "name" : "Cube.001",
            "scale" : [
                1,
                1,
                0.17685985565185547
            ],
            "translation" : [
                0,
                1.9323710203170776,
                0.10099299997091293
            ]
        },
        {
            "mesh" : 3,
            "name" : "Cube.002",
            "scale" : [
                0.49999403953552246,
                0.9499247670173645,
                0.17685985565185547
            ],
            "translation" : [
                0.3768273591995239,
                1.935537576675415,
                0.10099299997091293
            ]
        },
        {
            "name" : "Sun",
            "translation" : [
                0,
                2.6058530807495117,
                -1.1183284521102905
            ]
        },
        {
            "mesh" : 4,
            "name" : "Cube.003",
            "scale" : [
                0.8330847024917603,
                1,
                1
            ]
        }
    ],
    "materials" : [
        {
            "doubleSided" : true,
            "name" : "Material.003",
            "pbrMetallicRoughness" : {
                "baseColorTexture" : {
                    "index" : 0
                },
                "metallicFactor" : 0,
                "roughnessFactor" : 0.5
            }
        },
        {
            "doubleSided" : true,
            "name" : "Material.001",
            "pbrMetallicRoughness" : {
                "baseColorTexture" : {
                    "index" : 1
                },
                "metallicFactor" : 0.5242718458175659,
                "roughnessFactor" : 0.22815534472465515
            }
        },
        {
            "doubleSided" : true,
            "name" : "Material.004",
            "pbrMetallicRoughness" : {
                "baseColorFactor" : [
                    0.10247296094894409,
                    0.10247296094894409,
                    0.10247296094894409,
                    1
                ],
                "metallicFactor" : 0,
                "roughnessFactor" : 0.5
            }
        },
        {
            "doubleSided" : true,
            "extensions" : {
                "KHR_materials_transmission" : {
                    "transmissionFactor" : 1
                }
            },
            "name" : "Material.005",
            "pbrMetallicRoughness" : {
                "baseColorFactor" : [
                    0.800000011920929,
                    0.800000011920929,
                    0.800000011920929,
                    1
                ],
                "metallicFactor" : 0,
                "roughnessFactor" : 0.5
            }
        },
        {
            "doubleSided" : true,
            "name" : "textura",
            "pbrMetallicRoughness" : {
                "baseColorTexture" : {
                    "index" : 2
                },
                "metallicFactor" : 0,
                "roughnessFactor" : 0.5
            }
        }
    ],
    "meshes" : [
        {
            "name" : "Cube.002",
            "primitives" : [
                {
                    "attributes" : {
                        "POSITION" : 0,
                        "NORMAL" : 1,
                        "TEXCOORD_0" : 2
                    },
                    "indices" : 3,
                    "material" : 0
                }
            ]
        },
        {
            "name" : "Cube.003",
            "primitives" : [
                {
                    "attributes" : {
                        "POSITION" : 4,
                        "NORMAL" : 5,
                        "TEXCOORD_0" : 6
                    },
                    "indices" : 7,
                    "material" : 1
                }
            ]
        },
        {
            "name" : "Cube.006",
            "primitives" : [
                {
                    "attributes" : {
                        "POSITION" : 8,
                        "NORMAL" : 9,
                        "TEXCOORD_0" : 10
                    },
                    "indices" : 11,
                    "material" : 2
                },
                {
                    "attributes" : {
                        "POSITION" : 12,
                        "NORMAL" : 13,
                        "TEXCOORD_0" : 14
                    },
                    "indices" : 15,
                    "material" : 3
                }
            ]
        },
        {
            "name" : "Cube.007",
            "primitives" : [
                {
                    "attributes" : {
                        "POSITION" : 16,
                        "NORMAL" : 17,
                        "TEXCOORD_0" : 18
                    },
                    "indices" : 19,
                    "material" : 2
                }
            ]
        },
        {
            "name" : "Cube.008",
            "primitives" : [
                {
                    "attributes" : {
                        "POSITION" : 20,
                        "NORMAL" : 21,
                        "TEXCOORD_0" : 22
                    },
                    "indices" : 23,
                    "material" : 4
                }
            ]
        }
    ],
    "textures" : [
        {
            "sampler" : 0,
            "source" : 0
        },
        {
            "sampler" : 0,
            "source" : 0
        },
        {
            "sampler" : 0,
            "source" : 1
        }
    ],
    "images" : [
        {
            "bufferView" : 4,
            "mimeType" : "image/png",
            "name" : "Untitled"
        },
        {
            "bufferView" : 25,
            "mimeType" : "image/jpeg",
            "name" : "iPhone+12+Pro+Max+\u2013+1@2x"
        }
    ],
    "accessors" : [
        {
            "bufferView" : 0,
            "componentType" : 5126,
            "count" : 598,
            "max" : [
                1.207935094833374,
                2.6263890266418457,
                0.12866444885730743
            ],
            "min" : [
                -1.207935094833374,
                -2.6279070377349854,
                -0.12866444885730743
            ],
            "type" : "VEC3"
        },
        {
            "bufferView" : 1,
            "componentType" : 5126,
            "count" : 598,
            "type" : "VEC3"
        },
        {
            "bufferView" : 2,
            "componentType" : 5126,
            "count" : 598,
            "type" : "VEC2"
        },
        {
            "bufferView" : 3,
            "componentType" : 5123,
            "count" : 2496,
            "type" : "SCALAR"
        },
        {
            "bufferView" : 5,
            "componentType" : 5126,
            "count" : 531,
            "max" : [
                2.035522937774658,
                0.7277172803878784,
                0.0209015104919672
            ],
            "min" : [
                -0.026236707344651222,
                -0.3878136873245239,
                -0.0209015104919672
            ],
            "type" : "VEC3"
        },
        {
            "bufferView" : 6,
            "componentType" : 5126,
            "count" : 531,
            "type" : "VEC3"
        },
        {
            "bufferView" : 7,
            "componentType" : 5126,
            "count" : 531,
            "type" : "VEC2"
        },
        {
            "bufferView" : 8,
            "componentType" : 5123,
            "count" : 1692,
            "type" : "SCALAR"
        },
        {
            "bufferView" : 9,
            "componentType" : 5126,
            "count" : 295,
            "max" : [
                0.21339057385921478,
                0.21339057385921478,
                0.21339057385921478
            ],
            "min" : [
                -0.21339057385921478,
                -0.21339057385921478,
                -0.21339057385921478
            ],
            "type" : "VEC3"
        },
        {
            "bufferView" : 10,
            "componentType" : 5126,
            "count" : 295,
            "type" : "VEC3"
        },
        {
            "bufferView" : 11,
            "componentType" : 5126,
            "count" : 295,
            "type" : "VEC2"
        },
        {
            "bufferView" : 12,
            "componentType" : 5123,
            "count" : 1194,
            "type" : "SCALAR"
        },
        {
            "bufferView" : 13,
            "componentType" : 5126,
            "count" : 16,
            "max" : [
                0.1957111656665802,
                0.1957111656665802,
                0.17362387478351593
            ],
            "min" : [
                -0.1957111656665802,
                -0.1957111656665802,
                0.17362387478351593
            ],
            "type" : "VEC3"
        },
        {
            "bufferView" : 14,
            "componentType" : 5126,
            "count" : 16,
            "type" : "VEC3"
        },
        {
            "bufferView" : 15,
            "componentType" : 5126,
            "count" : 16,
            "type" : "VEC2"
        },
        {
            "bufferView" : 16,
            "componentType" : 5123,
            "count" : 42,
            "type" : "SCALAR"
        },
        {
            "bufferView" : 17,
            "componentType" : 5126,
            "count" : 295,
            "max" : [
                0.21339057385921478,
                0.21339057385921478,
                0.21339057385921478
            ],
            "min" : [
                -0.21339057385921478,
                -0.21339057385921478,
                -0.21339057385921478
            ],
            "type" : "VEC3"
        },
        {
            "bufferView" : 18,
            "componentType" : 5126,
            "count" : 295,
            "type" : "VEC3"
        },
        {
            "bufferView" : 19,
            "componentType" : 5126,
            "count" : 295,
            "type" : "VEC2"
        },
        {
            "bufferView" : 20,
            "componentType" : 5123,
            "count" : 1236,
            "type" : "SCALAR"
        },
        {
            "bufferView" : 21,
            "componentType" : 5126,
            "count" : 8,
            "max" : [
                0.9818001985549927,
                2.3480539321899414,
                -0.12866444885730743
            ],
            "min" : [
                -0.9818001985549927,
                -2.3480539321899414,
                -0.12866444885730743
            ],
            "type" : "VEC3"
        },
        {
            "bufferView" : 22,
            "componentType" : 5126,
            "count" : 8,
            "type" : "VEC3"
        },
        {
            "bufferView" : 23,
            "componentType" : 5126,
            "count" : 8,
            "type" : "VEC2"
        },
        {
            "bufferView" : 24,
            "componentType" : 5123,
            "count" : 18,
            "type" : "SCALAR"
        }
    ],
    "bufferViews" : [
        {
            "buffer" : 0,
            "byteLength" : 7176,
            "byteOffset" : 0
        },
        {
            "buffer" : 0,
            "byteLength" : 7176,
            "byteOffset" : 7176
        },
        {
            "buffer" : 0,
            "byteLength" : 4784,
            "byteOffset" : 14352
        },
        {
            "buffer" : 0,
            "byteLength" : 4992,
            "byteOffset" : 19136
        },
        {
            "buffer" : 0,
            "byteLength" : 20566,
            "byteOffset" : 24128
        },
        {
            "buffer" : 0,
            "byteLength" : 6372,
            "byteOffset" : 44696
        },
        {
            "buffer" : 0,
            "byteLength" : 6372,
            "byteOffset" : 51068
        },
        {
            "buffer" : 0,
            "byteLength" : 4248,
            "byteOffset" : 57440
        },
        {
            "buffer" : 0,
            "byteLength" : 3384,
            "byteOffset" : 61688
        },
        {
            "buffer" : 0,
            "byteLength" : 3540,
            "byteOffset" : 65072
        },
        {
            "buffer" : 0,
            "byteLength" : 3540,
            "byteOffset" : 68612
        },
        {
            "buffer" : 0,
            "byteLength" : 2360,
            "byteOffset" : 72152
        },
        {
            "buffer" : 0,
            "byteLength" : 2388,
            "byteOffset" : 74512
        },
        {
            "buffer" : 0,
            "byteLength" : 192,
            "byteOffset" : 76900
        },
        {
            "buffer" : 0,
            "byteLength" : 192,
            "byteOffset" : 77092
        },
        {
            "buffer" : 0,
            "byteLength" : 128,
            "byteOffset" : 77284
        },
        {
            "buffer" : 0,
            "byteLength" : 84,
            "byteOffset" : 77412
        },
        {
            "buffer" : 0,
            "byteLength" : 3540,
            "byteOffset" : 77496
        },
        {
            "buffer" : 0,
            "byteLength" : 3540,
            "byteOffset" : 81036
        },
        {
            "buffer" : 0,
            "byteLength" : 2360,
            "byteOffset" : 84576
        },
        {
            "buffer" : 0,
            "byteLength" : 2472,
            "byteOffset" : 86936
        },
        {
            "buffer" : 0,
            "byteLength" : 96,
            "byteOffset" : 89408
        },
        {
            "buffer" : 0,
            "byteLength" : 96,
            "byteOffset" : 89504
        },
        {
            "buffer" : 0,
            "byteLength" : 64,
            "byteOffset" : 89600
        },
        {
            "buffer" : 0,
            "byteLength" : 36,
            "byteOffset" : 89664
        },
        {
            "buffer" : 0,
            "byteLength" : 27444,
            "byteOffset" : 89700
        }
    ],
    "samplers" : [
        {
            "magFilter" : 9729,
            "minFilter" : 9987
        }
    ],
    "buffers" : [
        {
            "byteLength" : 117144,
            "uri" : "data:application/octet-stream;base64,"
        }
    ]
}
